<?xml version="1.0" encoding="UTF-8"?>
<svg width="187px" height="50px" viewBox="0 0 187 50" version="1.1" xmlns="http://www.w3.org/2000/svg" xmlns:xlink="http://www.w3.org/1999/xlink">
    <title>OXO</title>
    <g id="OXO--Page-1" stroke="none" stroke-width="1" fill="none" fill-rule="evenodd">
        <g id="OXO--512*512" transform="translate(-163.000000, -231.000000)" fill="#FFFFFF" fill-rule="nonzero">
            <path d="M195.273691,280.570312 C213.027597,280.535156 227.582285,275.367188 227.512226,257.507812 L227.512226,254.0625 C227.512226,236.203125 213.062754,231 195.273691,231 C177.484629,231.035156 162.929941,236.167969 163,254.0625 L163,257.507812 C162.929941,275.367188 177.484629,280.535156 195.273691,280.570312 Z M195.273691,265.59375 C187.817241,265.489707 181.489803,264.1198 181.421403,256.657758 L181.422129,255.1875 C181.31666,247.488281 187.715097,246.082031 195.273691,245.976562 C202.797129,246.082031 209.195566,247.488281 209.090097,255.1875 L209.090097,256.347656 C209.195566,264.082031 202.797129,265.488281 195.273691,265.59375 Z M242.361264,279.480469 L255.615171,265.664062 L268.869077,279.480469 L291.896421,279.480469 L267.111264,255.855469 L291.896421,232.230469 L268.869077,232.230469 L255.615171,246.011719 L242.361264,232.230469 L219.298764,232.230469 L244.083921,255.855469 L219.298764,279.480469 L242.361264,279.480469 Z M316.905869,280.570312 C334.659775,280.535156 349.214462,275.367188 349.144404,257.507812 L349.144404,254.0625 C349.144404,236.203125 334.694931,231 316.905869,231 C299.116806,231.035156 284.562119,236.167969 284.632178,254.0625 L284.632178,257.507812 C284.562119,275.367188 299.116806,280.535156 316.905869,280.570312 Z M316.905869,265.59375 C309.449418,265.489707 303.12198,264.1198 303.05358,256.657758 L303.054306,255.1875 C302.948837,247.488281 309.347275,246.082031 316.905869,245.976562 C324.429306,246.082031 330.827744,247.488281 330.722275,255.1875 L330.722275,256.347656 C330.827744,264.082031 324.429306,265.488281 316.905869,265.59375 Z" id="OXO--OXO"></path>
        </g>
    </g>
</svg>